# xmcd
# Copyright (C) 1995-1998 Ti Kan
#
# Track frame offsets:
#       150
#       21815
#       49710
#       62553
#       74219
#       90711
#       106433
#       137097
#       153992
#
# Disc length: 2688 seconds
#
# Revision: 0
# Processed by: cddbd v1.5.2PL0 Copyright (c) Steve Scherf et al.
# Submitted via: CD-Transfer v1.0
#
DISCID=7b0a7e09
DTITLE=Chweger, The - The Chweger
DYEAR=07
DGENRE=
TTITLE0=Back To East
TTITLE1=Kangaroo
TTITLE2=Ona Prava
TTITLE3=Branco
TTITLE4=7 Minutes
TTITLE5=She Cut Me
TTITLE6=Kyoto
TTITLE7=In The Town
TTITLE8=Maèke
EXTD=
EXTT0=
EXTT1=
EXTT2=
EXTT3=
EXTT4=
EXTT5=
EXTT6=
EXTT7=
EXTT8=
PLAYORDER=
